:SAMPLES-PER-SECOND 30
:FULLY-SPECIFIED
:DEGREES
1566
root  -38.9836 39.9334 0.118391 -142.66 -79.251 138.442
RightUpLeg  5.32645 -5.86255 -10.9031
RightLeg  16.559 -3.09536 -1.27086
RightFoot  -16.8172 -0.0274879 1.80127
RightToes  9.54606e-009 0 -3.6325e-017
Spine  21.6027 0.562111 -1.45171
Spine1  6.27625 0.183733 1.45598
HEad  -27.0997 11.3951 -9.24936
LeftShoulder1  -0.396415 4.51658 -32.9839
LeftArm  1.64231 14.5961 -37.4075
LeftForeArm  20.2809 -14.0298 -7.40524
LeftHand  -0.0469804 9.23668 0.0714487
RightShoulder  -0.85141 -5.95565 28.1291
RightArm  10.6096 7.11181 42.1988
RightForeArm  32.0883 65.2057 21.5661
RightHand  -0.393913 7.15594 -3.99129
LeftUpLeg  -20.8567 1.23324 -4.18813
LeftLeg  17.1697 12.4886 4.61225
LeftFoot  5.51738 1.06814 -7.4303
LeftToes  -8.26734e-010 9.74065e-011 1.64617e-011
1567
root  -40.1144 39.6959 0.337193 -154.318 -79.1672 150.458
RightUpLeg  7.24234 -6.39756 -10.0337
RightLeg  15.494 -1.15883 -0.878338
RightFoot  -17.9922 0.0151774 2.36177
RightToes  9.54606e-009 0 -3.6325e-017
Spine  19.6022 0.536372 1.85558
Spine1  5.47677 0.919028 0.813167
HEad  -26.4507 10.9467 -9.0585
LeftShoulder1  -0.287746 4.24544 -32.6742
LeftArm  3.05131 22.122 -36.4176
LeftForeArm  18.0833 -15.0813 -6.99342
LeftHand  -0.0621284 9.09803 -0.131636
RightShoulder  -0.853844 -5.97351 27.9737
RightArm  13.0604 10.38 42.5204
RightForeArm  31.6331 64.6285 20.9709
RightHand  -0.345835 7.30438 -3.51927
LeftUpLeg  -20.3809 1.56103 -2.39404
LeftLeg  12.3782 11.9747 3.03456
LeftFoot  4.33765 0.910368 -6.8036
LeftToes  -8.26734e-010 9.74065e-011 1.64617e-011
1568
root  -41.2911 39.4288 0.519767 -162.309 -78.4587 158.567
RightUpLeg  9.29225 -7.23571 -10.0113
RightLeg  14.7741 1.13415 -0.728795
RightFoot  -19.2761 0.0690901 2.87123
RightToes  9.54606e-009 0 -3.6325e-017
Spine  17.6715 0.734053 3.54596
Spine1  5.3008 1.45874 0.244884
HEad  -25.8738 10.9367 -9.12057
LeftShoulder1  -0.316636 4.32051 -32.6449
LeftArm  0.348963 27.4682 -35.9058
LeftForeArm  23.5985 -13.0176 -7.31329
LeftHand  -0.166391 10.3899 -2.5164
RightShoulder  -0.848906 -5.99033 27.5128
RightArm  15.4511 13.2766 43.6433
RightForeArm  30.3973 63.4428 19.8598
RightHand  -0.367981 6.7983 -3.83794
LeftUpLeg  -19.7668 2.02387 -1.36203
LeftLeg  9.29743 11.2985 1.94734
LeftFoot  3.86409 0.759447 -5.84022
LeftToes  -8.26734e-010 9.74065e-011 1.64617e-011
1569
root  -42.4697 39.1838 0.627219 -165.512 -77.6111 162.092
RightUpLeg  11.2736 -8.08375 -10.7609
RightLeg  13.7414 3.32178 -0.616695
RightFoot  -20.568 0.151214 3.60434
RightToes  9.54606e-009 0 -3.6325e-017
Spine  15.5145 1.02049 4.12126
Spine1  5.32061 2.08934 -1.16349
HEad  -25.38 10.6308 -7.89694
LeftShoulder1  -0.308861 4.31696 -31.8446
LeftArm  -3.32611 30.5693 -35.7776
LeftForeArm  29.4242 -8.6015 -7.79887
LeftHand  -0.168411 10.6653 -2.1887
RightShoulder  -1.00413 -6.36221 28.5949
RightArm  17.5055 15.7051 44.0697
RightForeArm  29.9695 62.2352 18.7478
RightHand  -0.23969 6.39641 -2.7047
LeftUpLeg  -19.3439 2.0205 -1.26325
LeftLeg  7.88434 11.6323 1.65817
LeftFoot  3.9667 0.435472 -3.46757
LeftToes  -8.26734e-010 9.74065e-011 1.64617e-011
1570
root  -43.7031 38.98 0.77068 -165.755 -76.3828 161.97
RightUpLeg  14.2559 -8.76619 -12.7385
RightLeg  11.9771 5.69358 -0.662301
RightFoot  -21.3857 0.241732 4.39782
RightToes  9.54606e-009 0 -3.6325e-017
Spine  14.0089 1.3467 4.06521
Spine1  5.56602 2.89982 -3.2697
HEad  -24.7321 10.4861 -6.62865
LeftShoulder1  -0.271224 4.22459 -31.5257
LeftArm  -4.5882 32.2024 -35.2466
LeftForeArm  36.1133 -4.49429 -7.47688
LeftHand  -0.339741 10.922 -5.66597
RightShoulder  -1.01486 -6.39614 28.5436
RightArm  18.3158 16.0473 45.476
RightForeArm  28.7984 60.5175 17.4008
RightHand  -0.171775 6.58184 -2.00895
LeftUpLeg  -18.6192 1.95271 -2.17917
LeftLeg  9.25354 12.9486 2.06449
LeftFoot  6.69934 -0.0970314 0.299086
LeftToes  -8.26734e-010 9.74065e-011 1.64617e-011
1571
root  -44.9107 38.8384 0.87228 -161.571 -75.8409 157.481
RightUpLeg  17.4815 -8.97561 -15.1465
RightLeg  9.53984 6.64278 -1.22606
RightFoot  -21.6964 0.380187 5.81662
RightToes  9.54606e-009 0 -3.6325e-017
Spine  13.1913 1.37143 1.78377
Spine1  4.88506 2.90686 -4.50032
HEad  -24.3285 10.618 -5.08482
LeftShoulder1  -0.324074 4.36298 -31.5006
LeftArm  -4.47959 34.3644 -34.271
LeftForeArm  43.4955 -4.09592 -7.34864
LeftHand  -0.349467 10.299 -6.625
RightShoulder  -1.00744 -6.37803 28.5028
RightArm  19.2215 15.0688 47.3458
RightForeArm  27.1852 58.1866 15.8121
RightHand  -0.217483 6.11082 -2.52737
LeftUpLeg  -18.412 1.32571 -4.07002
LeftLeg  12.354 13.5388 3.02438
LeftFoot  8.89394 -0.620284 3.20929
LeftToes  -8.26734e-010 9.74065e-011 1.64617e-011
1572
root  -45.9842 38.7625 0.887572 -153.219 -75.3671 148.522
RightUpLeg  20.1675 -7.74237 -17.6462
RightLeg  8.28903 5.17823 -2.06187
RightFoot  -21.6378 0.543524 7.64826
RightToes  9.54606e-009 0 -3.6325e-017
Spine  12.9624 1.86 -2.35639
Spine1  4.65284 2.99015 -4.88435
HEad  -24.6295 9.55917 -4.06705
LeftShoulder1  -0.383154 4.48803 -32.7878
LeftArm  -1.71029 33.2838 -31.5096
LeftForeArm  49.1107 -4.91959 -8.64653
LeftHand  -0.392089 9.73853 -8.57554
RightShoulder  -1.04208 -6.46294 28.6817
RightArm  18.477 13.0246 48.9481
RightForeArm  26.0031 55.1716 14.0114
RightHand  -0.263918 5.80622 -3.04887
LeftUpLeg  -17.3503 0.187448 -6.90828
LeftLeg  14.4036 14.0505 3.92786
LeftFoot  7.22898 -0.571323 3.23144
LeftToes  -8.26734e-010 9.74065e-011 1.64617e-011
1573
root  -47.0796 38.7196 0.985646 -147.579 -74.4564 141.893
RightUpLeg  21.7873 -4.01883 -19.3469
RightLeg  9.74776 1.61696 -1.99264
RightFoot  -20.9916 0.767116 10.78
RightToes  9.54606e-009 0 -3.6325e-017
Spine  12.0188 2.32996 -4.40822
Spine1  5.86658 3.65849 -7.18602
HEad  -24.6558 7.96324 -3.33247
LeftShoulder1  -0.305146 4.29616 -32.3928
LeftArm  -1.17139 30.4595 -31.6904
LeftForeArm  48.2371 -4.53816 -9.13609
LeftHand  -0.405742 10.3187 -7.87379
RightShoulder  -1.02894 -6.39819 28.9838
RightArm  16.73 10.7075 50.8524
RightForeArm  24.969 50.266 11.6121
RightHand  -0.197965 5.56073 -2.41401
LeftUpLeg  -15.3739 -0.703614 -9.72772
LeftLeg  15.6295 15.0377 4.93856
LeftFoot  5.47262 -0.581674 3.69784
LeftToes  -8.26734e-010 9.74065e-011 1.64617e-011
1574
root  -48.0949 38.7643 1.16985 -148.968 -73.5548 142.776
RightUpLeg  21.0021 1.52944 -18.8858
RightLeg  14.3302 -3.16106 -1.30035
RightFoot  -19.0287 0.81587 14.2092
RightToes  9.54606e-009 0 -3.6325e-017
Spine  11.9645 2.69198 -4.27548
Spine1  5.38968 4.24714 -9.70887
HEad  -23.8163 7.83849 -3.561
LeftShoulder1  -0.546946 4.88541 -33.3197
LeftArm  -1.62183 27.11 -31.5385
LeftForeArm  44.0815 -4.87127 -9.02437
LeftHand  -0.419287 11.0364 -7.00649
RightShoulder  -1.13449 -6.62273 29.8544
RightArm  18.2405 9.77121 52.3477
RightForeArm  20.0596 42.1133 8.82987
RightHand  -0.338903 5.61486 -3.90684
LeftUpLeg  -14.0032 -0.484902 -10.7969
LeftLeg  17.2707 15.7051 5.88765
LeftFoot  3.22839 -0.452817 3.39057
LeftToes  -8.26734e-010 9.74065e-011 1.64617e-011
1575
root  -49.0594 38.9193 1.34661 -149.809 -73.3768 143.515
RightUpLeg  17.8387 2.41279 -19.056
RightLeg  22.4096 -4.48456 -2.21756
RightFoot  -14.6271 0.370133 14.8336
RightToes  9.54606e-009 0 -3.6325e-017
Spine  12.0694 2.68702 -4.98147
Spine1  3.56218 3.83457 -9.76593
HEad  -21.9026 8.42587 -3.58235
LeftShoulder1  -0.810119 5.48674 -34.7169
LeftArm  -2.41067 23.1522 -31.7506
LeftForeArm  38.9029 -5.71149 -8.74753
LeftHand  -0.347176 10.605 -6.24493
RightShoulder  -1.02114 -6.34191 29.4371
RightArm  22.1046 8.80016 54.6935
RightForeArm  14.9554 31.8693 6.07855
RightHand  -0.246215 6.39036 -2.75618
LeftUpLeg  -12.36 -0.526003 -11.4516
LeftLeg  17.4156 16.1325 6.1855
LeftFoot  1.54161 -0.408104 3.53813
LeftToes  -8.26734e-010 9.74065e-011 1.64617e-011
